<svg xmlns="http://www.w3.org/2000/svg" viewBox="0 0 80 80"><defs><style>.cls-1{fill:#fff;}.cls-2{fill:#e61e2a;}</style></defs><g id="Layer_2" data-name="Layer 2"><path class="cls-1" d="M49.82,77.57H47.48a7.71,7.71,0,1,0-15.42,0H29.72a10.05,10.05,0,1,1,20.1,0Z"/><path class="cls-1" d="M66.85,60.91,12.61,61a10,10,0,0,1-10-9.94L2.57,14.64a10,10,0,0,1,9.93-10l54.24-.11a10,10,0,0,1,10,9.94l.07,36.44A10,10,0,0,1,66.85,60.91ZM12.51,7a7.62,7.62,0,0,0-7.6,7.63L5,51.08a7.62,7.62,0,0,0,7.63,7.6l54.24-.11a7.62,7.62,0,0,0,7.6-7.63L74.38,14.5a7.62,7.62,0,0,0-7.63-7.6Z"/><rect class="cls-1" x="38.73" y="59.8" width="2.34" height="8.86" transform="translate(-0.12 0.08) rotate(-0.11)"/><rect class="cls-1" x="39.82" y="22.63" width="26.9" height="2.34" transform="translate(-0.05 0.1) rotate(-0.11)"/><rect class="cls-1" x="39.86" y="40.66" width="18.07" height="2.34" transform="translate(-0.08 0.1) rotate(-0.11)"/><rect class="cls-1" x="39.84" y="31.41" width="26.9" height="2.34" transform="translate(-0.06 0.1) rotate(-0.11)"/><path class="cls-2" d="M19.75,23.78v2h-4v4.09h-3v6h3v4.09h4v2h2.13a9.3,9.3,0,0,0,9.34-9,9.11,9.11,0,0,0-9.09-9Z"/></g></svg>