<svg xmlns="http://www.w3.org/2000/svg" viewBox="0 0 80 80"><defs><style>.cls-1,.cls-2{fill:none;stroke:#28245f;stroke-miterlimit:10;stroke-width:2.34px;}.cls-2{stroke-linecap:square;}.cls-3{fill:#e61e2a;}</style></defs><g id="Layer_2" data-name="Layer 2"><polyline class="cls-1" points="40.99 59.18 22.88 59.18 24.35 59.18 4.07 59.18"/><path class="cls-2" d="M67.94,75.44H49.49A8.5,8.5,0,0,1,40.89,67V29.46a8.5,8.5,0,0,1,8.6-8.4H67.94a8.5,8.5,0,0,1,8.61,8.4V67A8.51,8.51,0,0,1,67.94,75.44Z"/><path class="cls-2" d="M57.19,21.06V11.85a8.63,8.63,0,0,0-8.78-8.46H12.22a8.63,8.63,0,0,0-8.79,8.46v46.2a8.63,8.63,0,0,0,8.79,8.46H76.57"/><rect class="cls-3" x="56.43" y="29.13" width="2.21" height="2.34"/><rect class="cls-3" x="51.85" y="29.13" width="2.37" height="2.34"/><rect class="cls-3" x="60.86" y="29.13" width="2.34" height="2.37" transform="translate(31.04 92.01) rotate(-89.37)"/></g></svg>