<svg xmlns="http://www.w3.org/2000/svg" viewBox="0 0 80 80"><defs><style>.cls-1{fill:#fff;}.cls-2{fill:#e61e2a;}</style></defs><g id="Layer_2" data-name="Layer 2"><polygon class="cls-1" points="76.55 46.3 48.52 46.36 48.52 44.02 74.2 43.97 74.12 4.22 47.69 4.28 47.69 1.94 76.46 1.88 76.55 46.3"/><polygon class="cls-1" points="21.86 46.41 2.4 46.45 2.32 2.02 53.77 1.92 53.78 4.26 4.66 4.36 4.74 44.1 21.85 44.07 21.86 46.41"/><path class="cls-1" d="M69.21,75.76l-66.79.13V74.72a33.4,33.4,0,1,1,66.79-.13ZM4.78,73.54l62.06-.12a31.05,31.05,0,0,0-62.06.12Z"/><path class="cls-1" d="M35.39,38.05A13.26,13.26,0,1,1,48.52,24.77,13.24,13.24,0,0,1,35.39,38.05Zm0-24.17a10.92,10.92,0,1,0,10.84,10.9A10.88,10.88,0,0,0,35.34,13.88Z"/><rect class="cls-2" x="34.72" y="67.62" width="2.2" height="2.3" transform="translate(-0.13 0.07) rotate(-0.11)"/><rect class="cls-2" x="30.12" y="67.63" width="2.4" height="2.3" transform="translate(-0.13 0.06) rotate(-0.11)"/><rect class="cls-2" x="39.12" y="67.64" width="2.3" height="2.4" transform="translate(-28.94 108.48) rotate(-89.47)"/><rect class="cls-1" x="60.11" y="8.74" width="9.09" height="2.34" transform="translate(-0.02 0.13) rotate(-0.11)"/><rect class="cls-1" x="65.54" y="22.73" width="3.69" height="2.34" transform="translate(-0.05 0.13) rotate(-0.11)"/><rect class="cls-1" x="59.21" y="22.74" width="3.69" height="2.34" transform="translate(-0.05 0.12) rotate(-0.11)"/><rect class="cls-1" x="55.69" y="15.74" width="13.52" height="2.34" transform="translate(-0.03 0.12) rotate(-0.11)"/></g></svg>