<svg xmlns="http://www.w3.org/2000/svg" viewBox="0 0 87.59 86.91"><defs><style>.cls-1{fill:#222160;}.cls-2{fill:#e61e2a;}</style></defs><g id="Layer_2" data-name="Layer 2"><g id="Layer_1-2" data-name="Layer 1"><path class="cls-1" d="M18.13,74.59a14.83,14.83,0,0,1-14.71-13H32.85A14.55,14.55,0,0,1,18.13,74.59Zm0-39.35,13,22.92H4.79Zm38,22.92L69.46,35.24,82.8,58.16ZM69.46,74.59a14.8,14.8,0,0,1-14.72-13H83.83A14.23,14.23,0,0,1,69.46,74.59Zm0,3.42A18.25,18.25,0,0,0,87.59,59.88c0-.35,0-.69-.34-.69L71.17,31.13v-.34H16.76L.34,58.85c0,.34-.34.34-.34.68A18.25,18.25,0,0,0,18.13,77.67,18.26,18.26,0,0,0,36.27,59.53l-.35-.34c0-.34,0-.34-.34-.68L21.21,33.87H42.08V83.48H11.29v3.43h65V83.48H45.51V34.22H66L51.66,58.85c0,.34-.34.34-.34.68A18.11,18.11,0,0,0,69.46,78Z"/><path class="cls-2" d="M41.4,0V2.4H36.61V7.19H32.85v7.18h3.76V19.5H41.4v2.4h2.39A11.1,11.1,0,0,0,55.08,11,10.81,10.81,0,0,0,44.14,0Z"/></g></g></svg>