<svg xmlns="http://www.w3.org/2000/svg" viewBox="0 0 80 80"><defs><style>.cls-1{fill:#e61e2a;}.cls-2{fill:none;stroke:#28245f;stroke-miterlimit:10;stroke-width:2.34px;}</style></defs><g id="Layer_2" data-name="Layer 2"><path class="cls-1" d="M21,11.06V13H17v4.08h-3v6h3v4.07h4v1.95h2.12a9.27,9.27,0,0,0,9.33-9,9.08,9.08,0,0,0-9-9Z"/><path class="cls-2" d="M36.14,75.72H13a9.08,9.08,0,0,1-9.08-9.08V12.71A9.09,9.09,0,0,1,13,3.63H48.81a9.08,9.08,0,0,1,9.07,9.08v8.82"/><path class="cls-2" d="M52.61,45.79l-9.37,3.06,3.06-9.37L68.51,17.27a4.45,4.45,0,0,1,6.3,0h0a4.45,4.45,0,0,1,0,6.31Z"/><line class="cls-2" x1="65.36" y1="20.42" x2="71.67" y2="26.73"/><line class="cls-2" x1="46.3" y1="39.48" x2="52.61" y2="45.79"/><line class="cls-2" x1="30.88" y1="48.85" x2="12.99" y2="48.85"/><line class="cls-2" x1="39.8" y1="39.68" x2="12.99" y2="39.68"/><rect class="cls-1" x="17.57" y="55.28" width="2.21" height="2.34"/><rect class="cls-1" x="12.99" y="55.28" width="2.37" height="2.34"/><rect class="cls-1" x="22" y="55.28" width="2.34" height="2.37" transform="translate(-33.55 79) rotate(-89.36)"/><path class="cls-2" d="M25.62,75.72H48.8a9.07,9.07,0,0,0,9.08-9.08V48.32"/></g></svg>