<svg xmlns="http://www.w3.org/2000/svg" viewBox="0 0 80 80"><defs><style>.cls-1{fill:none;stroke:#28245f;stroke-miterlimit:10;stroke-width:2.34px;}.cls-2{fill:#e61e2a;}</style></defs><g id="Layer_2" data-name="Layer 2"><polygon class="cls-1" points="66.02 49.05 21.02 49.05 12.02 58.05 12.02 49.05 3.22 49.05 3.22 3.95 66.02 3.95 66.02 49.05"/><polyline class="cls-1" points="66.02 30.85 75.12 30.85 75.12 67.15 66.02 67.15 66.02 76.05 57.02 67.15 29.82 67.15 29.82 48.95"/><polyline class="cls-1" points="29.92 22.05 21.02 22.05 21.72 22.05 11.82 22.05"/><polyline class="cls-1" points="47.82 30.85 30.12 30.85 31.62 30.85 11.82 30.85"/><rect class="cls-2" x="16.42" y="38.75" width="2.2" height="2.3"/><rect class="cls-2" x="11.82" y="38.75" width="2.4" height="2.3"/><rect class="cls-2" x="20.78" y="38.81" width="2.3" height="2.4" transform="translate(-18.33 61.49) rotate(-89.36)"/></g></svg>