<svg xmlns="http://www.w3.org/2000/svg" viewBox="0 0 80 80"><defs><style>.cls-1{fill:#fff;}.cls-2{fill:#e61e2a;}</style></defs><g id="Layer_2" data-name="Layer 2"><rect class="cls-1" x="3.55" y="58.61" width="36.93" height="2.34" transform="translate(-0.12 0.04) rotate(-0.11)"/><path class="cls-1" d="M67.46,77.12,49,77.16a9.7,9.7,0,0,1-9.8-9.56L39.14,30a9.69,9.69,0,0,1,9.76-9.59l18.45,0A9.69,9.69,0,0,1,77.14,30l.08,37.57A9.69,9.69,0,0,1,67.46,77.12ZM48.9,22.78A7.34,7.34,0,0,0,41.48,30l.07,37.57A7.36,7.36,0,0,0,49,74.82l18.45,0a7.34,7.34,0,0,0,7.42-7.25L74.8,30a7.35,7.35,0,0,0-7.45-7.22Z"/><path class="cls-1" d="M77.23,68.17l-65.52.13a9.81,9.81,0,0,1-10-9.61l-.09-46.2a9.81,9.81,0,0,1,9.94-9.65l36.19-.07a9.8,9.8,0,0,1,10,9.61l0,10.38H55.43l0-10.38a7.47,7.47,0,0,0-7.63-7.28l-36.19.07A7.48,7.48,0,0,0,4,12.49l.09,46.19A7.47,7.47,0,0,0,11.71,66l65.52-.13Z"/><rect class="cls-2" x="55.85" y="29.66" width="2.21" height="2.34" transform="translate(-0.06 0.11) rotate(-0.11)"/><rect class="cls-2" x="51.28" y="29.67" width="2.37" height="2.34" transform="translate(-0.06 0.1) rotate(-0.11)"/><rect class="cls-2" x="60.28" y="29.65" width="2.34" height="2.37" transform="translate(30.07 92.01) rotate(-89.49)"/></g></svg>