<?xml version="1.0" encoding="utf-8"?>
<!-- Generator: Adobe Illustrator 26.1.0, SVG Export Plug-In . SVG Version: 6.00 Build 0)  -->
<svg version="1.1" id="Layer_1" xmlns="http://www.w3.org/2000/svg" xmlns:xlink="http://www.w3.org/1999/xlink" x="0px" y="0px"
	 viewBox="0 0 80 80" style="enable-background:new 0 0 80 80;" xml:space="preserve">
<style type="text/css">
	.st0{fill:#E61E2A;}
	.st1{fill:none;stroke:#FFFFFF;stroke-width:2.34;stroke-miterlimit:10;}
</style>
<g id="Layer_2_00000072983941140942990660000015853482716196218527_">
	<path class="st0" d="M23,14.1V16h-4v4.1h-3v6h3v4.1h4v1.9h2.1c5,0,9.2-4,9.3-9c0-5-4-9-9-9L23,14.1z"/>
	<line class="st1" x1="34.4" y1="52.8" x2="15" y2="52.8"/>
	<line class="st1" x1="34.4" y1="43.7" x2="15" y2="43.7"/>
	<line class="st1" x1="66.8" y1="19.4" x2="40" y2="19.4"/>
	<line class="st1" x1="66.8" y1="28.2" x2="40" y2="28.2"/>
	<line class="st1" x1="63.1" y1="44.4" x2="43.7" y2="44.4"/>
	<line class="st1" x1="63.1" y1="61.8" x2="43.7" y2="61.8"/>
	<line class="st1" x1="44.8" y1="43.4" x2="44.8" y2="62.9"/>
	<line class="st1" x1="62" y1="43.4" x2="62" y2="62.9"/>
	<line class="st1" x1="34.4" y1="61.6" x2="15" y2="61.6"/>
	<g id="Layer_2_00000088842454139205220030000017178339115556348554_">
		<polygon class="st1" points="71.6,66.8 71.6,68.9 71.6,76 8.4,76 8.4,4 71.6,4 71.6,40 		"/>
	</g>
</g>
</svg>
