<svg xmlns="http://www.w3.org/2000/svg" viewBox="0 0 80 80"><defs><style>.cls-1{fill:#fff;}.cls-2{fill:#e61e2a;}</style></defs><g id="Layer_2" data-name="Layer 2"><path class="cls-1" d="M17.27,67.22A14.8,14.8,0,0,1,2.47,52.47V51.3l29.54,0v1.17A14.79,14.79,0,0,1,17.27,67.22ZM4.87,53.64a12.43,12.43,0,0,0,24.75,0Z"/><path class="cls-1" d="M62.27,67.13a14.8,14.8,0,0,1-14.8-14.74V51.22L77,51.16v1.17A14.79,14.79,0,0,1,62.27,67.13ZM49.87,53.55a12.43,12.43,0,0,0,24.75,0Z"/><rect class="cls-1" x="17.6" y="28.53" width="44.7" height="2.34" transform="translate(-0.06 0.08) rotate(-0.11)"/><rect class="cls-1" x="12.99" y="73.33" width="53.9" height="2.34" transform="translate(-0.14 0.08) rotate(-0.11)"/><rect class="cls-1" x="38.77" y="29.7" width="2.34" height="44.8" transform="translate(-0.1 0.08) rotate(-0.11)"/><path class="cls-1" d="M4.75,53.07l-2-1.2L16.29,29.15a1.14,1.14,0,0,1,1-.58,1.21,1.21,0,0,1,1,.58L31.65,51.83l-2,1.18L17.29,32Z"/><path class="cls-1" d="M49.75,53l-2-1.2L61.29,29.06a1.17,1.17,0,0,1,1-.57h0a1.15,1.15,0,0,1,1,.57L76.85,51.73l-2,1.2-12.54-21Z"/><path class="cls-2" d="M37.65,2.71v2h-4v4.1h-3v6h3v4.1h4v2h2.1a9.31,9.31,0,0,0,9.38-9A9.12,9.12,0,0,0,40.05,2.8l-2.4-.09Z"/></g></svg>