<svg xmlns="http://www.w3.org/2000/svg" viewBox="0 0 80 80"><defs><style>.cls-1{fill:#fff;}.cls-2{fill:#e61e2a;}</style></defs><g id="Layer_2" data-name="Layer 2"><rect class="cls-1" x="16.57" y="5.32" width="2.34" height="71.75" transform="translate(-0.08 0.03) rotate(-0.11)"/><path class="cls-1" d="M73.42,78.28,7.86,78.4,7.71,4l65.56-.13ZM10.19,76.06l60.88-.12L70.93,6.21l-60.87.12Z"/><rect class="cls-1" x="36.11" y="58.23" width="18.07" height="2.34" transform="translate(-0.12 0.09) rotate(-0.11)"/><rect class="cls-1" x="36.13" y="67.01" width="18.07" height="2.34" transform="translate(-0.13 0.09) rotate(-0.11)"/><path class="cls-2" d="M43.08,23.17v2h-4v4.09h-3v6h3v4.09h4v2h2.12a9.3,9.3,0,0,0,9.34-9,9.1,9.1,0,0,0-9.08-9Z"/></g></svg>