<svg xmlns="http://www.w3.org/2000/svg" viewBox="0 0 80 80"><defs><style>.cls-1{fill:#fff;}.cls-2{fill:#e61e2a;}</style></defs><g id="Layer_2" data-name="Layer 2"><path class="cls-1" d="M67.24,77.84,13.53,78A10.3,10.3,0,0,1,3.22,67.68L3.11,14.16A10.3,10.3,0,0,1,13.38,3.85L67.1,3.74A10.31,10.31,0,0,1,77.41,14l.1,53.52A10.29,10.29,0,0,1,67.24,77.84ZM13.39,6.19a8,8,0,0,0-7.93,8l.1,53.52a8,8,0,0,0,8,7.93l53.72-.1a8,8,0,0,0,7.93-8L75.07,14a8,8,0,0,0-8-7.93Z"/><path class="cls-1" d="M30.18,58.49l-.07-35.31,30.62,17.6Zm2.28-31.26.06,27.2L56.05,40.79Z"/><rect class="cls-2" x="60.65" y="66.52" width="2.21" height="2.34" transform="translate(-0.13 0.12) rotate(-0.11)"/><rect class="cls-2" x="56.07" y="66.52" width="2.37" height="2.34" transform="translate(-0.13 0.11) rotate(-0.11)"/><rect class="cls-2" x="65.08" y="66.51" width="2.34" height="2.37" transform="translate(-2.05 133.32) rotate(-89.47)"/></g></svg>