<svg xmlns="http://www.w3.org/2000/svg" viewBox="0 0 80 80"><defs><style>.cls-1{fill:none;stroke:#28245f;stroke-miterlimit:10;stroke-width:2.34px;}.cls-2{fill:#e61e2a;}</style></defs><g id="Layer_2" data-name="Layer 2"><path class="cls-1" d="M26.9,26.58a4.5,4.5,0,1,1-4.5-4.5A4.51,4.51,0,0,1,26.9,26.58Z"/><line class="cls-1" x1="31.64" y1="57.92" x2="12.13" y2="57.92"/><line class="cls-1" x1="4.11" y1="13.36" x2="76.02" y2="13.36"/><line class="cls-1" x1="58.05" y1="4.19" x2="58.05" y2="13.36"/><rect class="cls-1" x="4.11" y="4.19" width="71.9" height="71.62"/><rect class="cls-2" x="16.71" y="47.72" width="2.21" height="2.34"/><rect class="cls-2" x="12.13" y="47.72" width="2.37" height="2.34"/><rect class="cls-2" x="21.13" y="47.72" width="2.34" height="2.37" transform="translate(-26.85 70.67) rotate(-89.36)"/><rect class="cls-1" x="40.07" y="22.08" width="26.73" height="45.75"/><path class="cls-1" d="M13.4,40.54v-.19a8.9,8.9,0,0,1,8.91-8.9h0a8.9,8.9,0,0,1,8.9,8.9v.19"/></g></svg>