<svg xmlns="http://www.w3.org/2000/svg" viewBox="0 0 80 80"><defs><style>.cls-1{fill:#e61e2a;}.cls-2{fill:#fff;}</style></defs><g id="Layer_2" data-name="Layer 2"><path class="cls-1" d="M22,12.5v1.95H18v4.08H15v6h3v4.07h4v1.94h2.12a9.27,9.27,0,0,0,9.31-9,9.08,9.08,0,0,0-9.06-9Z"/><path class="cls-2" d="M37.34,78.31l-23.19,0A10.26,10.26,0,0,1,3.88,68.12l-.1-53.93A10.26,10.26,0,0,1,14,3.92l35.85-.07A10.26,10.26,0,0,1,60.12,14.08l0,8.82H57.8l0-8.83a7.91,7.91,0,0,0-7.92-7.89L14,6.26a7.92,7.92,0,0,0-7.89,7.93l.11,53.93A7.91,7.91,0,0,0,14.15,76l23.18,0Z"/><path class="cls-2" d="M42.55,52.08,46.4,40.24,68.75,17.8a5.63,5.63,0,1,1,8,8L54.38,48.19Zm5.9-10.58L46.2,48.41l6.91-2.27,22-22a3.23,3.23,0,0,0,1-2.33,3.29,3.29,0,0,0-5.62-2.31Z"/><rect class="cls-2" x="68.43" y="20.46" width="2.34" height="8.92" transform="translate(2.82 56.65) rotate(-45.11)"/><rect class="cls-2" x="49.41" y="39.56" width="2.34" height="8.92" transform="translate(-16.3 48.79) rotate(-45.11)"/><rect class="cls-2" x="14.13" y="49.12" width="17.89" height="2.34" transform="translate(-0.1 0.05) rotate(-0.11)"/><rect class="cls-2" x="14.11" y="39.94" width="26.81" height="2.34" transform="translate(-0.08 0.05) rotate(-0.11)"/><rect class="cls-1" x="18.72" y="56.73" width="2.21" height="2.34" transform="translate(-0.11 0.04) rotate(-0.11)"/><rect class="cls-1" x="14.15" y="56.73" width="2.37" height="2.34" transform="translate(-0.11 0.03) rotate(-0.11)"/><rect class="cls-1" x="23.15" y="56.72" width="2.34" height="2.37" transform="translate(-33.8 81.69) rotate(-89.47)"/><path class="cls-2" d="M50,78.28l-23.19,0V76l23.18,0A7.91,7.91,0,0,0,57.88,68l0-18.33h2.34l0,18.32A10.26,10.26,0,0,1,50,78.28Z"/></g></svg>