<svg xmlns="http://www.w3.org/2000/svg" viewBox="0 0 80 80"><defs><style>.cls-1{fill:#fff;}.cls-2{fill:#e61e2a;}</style></defs><g id="Layer_2" data-name="Layer 2"><rect class="cls-1" x="11.93" y="38.57" width="18.07" height="2.34" transform="translate(-0.08 0.04) rotate(-0.11)"/><rect class="cls-1" x="11.95" y="47.33" width="35.98" height="2.34" transform="translate(-0.09 0.06) rotate(-0.11)"/><path class="cls-1" d="M76.09,76.8l-63.35.12A9.9,9.9,0,0,1,2.92,67l-.1-54.07a2.53,2.53,0,0,1,0-.28v-1h.07A10.09,10.09,0,0,1,5.57,5.75a9.84,9.84,0,0,1,7.24-3.17l63.13-.12V4.8l-63.14.12A7.55,7.55,0,0,0,7.28,7.35a7.81,7.81,0,0,0-2.12,5.31v.22c0,.14,0,.28,0,.42a7.91,7.91,0,0,0,8,7.3L76,20.48ZM5.17,19.24,5.26,67a7.55,7.55,0,0,0,7.47,7.61l61-.12-.1-51.63L13.15,23A10.41,10.41,0,0,1,5.17,19.24Z"/><rect class="cls-2" x="16.54" y="56.46" width="2.21" height="2.34" transform="translate(-0.11 0.03) rotate(-0.11)"/><rect class="cls-2" x="11.97" y="56.47" width="2.37" height="2.34" transform="translate(-0.11 0.03) rotate(-0.11)"/><rect class="cls-2" x="20.97" y="56.45" width="2.34" height="2.37" transform="translate(-35.7 79.25) rotate(-89.47)"/></g></svg>