<svg xmlns="http://www.w3.org/2000/svg" viewBox="0 0 80 80"><defs><style>.cls-1{fill:#fff;}.cls-2{fill:#e61e2a;}</style></defs><g id="Layer_2" data-name="Layer 2"><path class="cls-1" d="M9.77,59.82l0-10.66-8.8,0L.86,1.74,66,1.61l.09,47.44-45.68.09Zm-6.48-13h8.8v7.34l7.33-7.36,44.32-.08L63.66,4,3.2,4.07Z"/><polygon class="cls-1" points="66.15 77.69 55.47 67.17 27.59 67.23 27.55 47.86 29.89 47.85 29.92 64.88 56.43 64.83 63.79 72.08 63.78 64.81 72.88 64.8 72.81 30.84 64.89 30.86 64.88 28.51 75.15 28.49 75.23 67.14 66.13 67.15 66.15 77.69"/><rect class="cls-1" x="10.67" y="19.8" width="18.1" height="2.34" transform="translate(-0.04 0.04) rotate(-0.11)"/><rect class="cls-1" x="10.68" y="28.58" width="36" height="2.34" transform="translate(-0.06 0.06) rotate(-0.11)"/><rect class="cls-2" x="15.3" y="37.68" width="2.2" height="2.3" transform="translate(-0.08 0.03) rotate(-0.11)"/><rect class="cls-2" x="10.7" y="37.69" width="2.4" height="2.3" transform="translate(-0.08 0.02) rotate(-0.11)"/><rect class="cls-2" x="19.65" y="37.73" width="2.3" height="2.4" transform="translate(-18.32 59.38) rotate(-89.47)"/></g></svg>