<svg xmlns="http://www.w3.org/2000/svg" viewBox="0 0 80 80"><defs><style>.cls-1{fill:none;stroke:#28245f;stroke-miterlimit:10;stroke-width:2.34px;}.cls-2{fill:#e61e2a;}</style></defs><g id="Layer_2" data-name="Layer 2"><path class="cls-1" d="M30.53,75.9a8.88,8.88,0,1,1,17.76,0"/><rect class="cls-1" x="3.51" y="4.1" width="71.81" height="54.01" rx="8.78"/><line class="cls-1" x1="39.57" y1="58.11" x2="39.57" y2="66.97"/><polyline class="cls-1" points="66.48 22.14 53.28 22.14 54.35 22.14 39.57 22.14"/><polyline class="cls-1" points="57.64 40.16 48.78 40.16 49.5 40.16 39.57 40.16"/><line class="cls-1" x1="66.48" y1="30.92" x2="39.57" y2="30.92"/><path class="cls-2" d="M19.51,22.05v2h-4V28.1h-3v6h3V38.2h4v1.95h2.13a9.3,9.3,0,0,0,9.35-9,9.12,9.12,0,0,0-9.07-9.08Z"/></g></svg>