<svg xmlns="http://www.w3.org/2000/svg" viewBox="0 0 80 80"><defs><style>.cls-1{fill:none;stroke:#28245f;stroke-miterlimit:10;stroke-width:2.34px;}.cls-2{fill:#e61e2a;}</style></defs><g id="Layer_2" data-name="Layer 2"><polyline class="cls-1" points="48.32 4.24 75.92 4.24 75.92 46.32 49.07 46.32"/><polyline class="cls-1" points="22.4 46.32 4.12 46.32 4.12 4.24 54.4 4.24"/><path class="cls-1" d="M68.52,75.76a32.22,32.22,0,1,0-64.44,0Z"/><path class="cls-1" d="M47.94,25.9A12,12,0,1,1,36,13.82,12,12,0,0,1,47.94,25.9Z"/><rect class="cls-2" x="35.22" y="68.73" width="2.2" height="2.3"/><rect class="cls-2" x="30.62" y="68.73" width="2.4" height="2.3"/><rect class="cls-2" x="39.62" y="68.76" width="2.3" height="2.4" transform="translate(-29.64 109.95) rotate(-89.36)"/><line class="cls-1" x1="60.73" y1="11.07" x2="69.82" y2="11.07"/><line class="cls-1" x1="66.13" y1="25.07" x2="69.82" y2="25.07"/><line class="cls-1" x1="59.8" y1="25.07" x2="63.49" y2="25.07"/><line class="cls-1" x1="56.29" y1="18.07" x2="69.82" y2="18.07"/></g></svg>