<svg xmlns="http://www.w3.org/2000/svg" viewBox="0 0 80 80"><defs><style>.cls-1{fill:none;stroke:#28245f;stroke-miterlimit:10;stroke-width:2.34px;}.cls-2{fill:#e61e2a;}</style></defs><g id="Layer_2" data-name="Layer 2"><path class="cls-1" d="M71.6,38.44a4.51,4.51,0,1,1-4.5-4.5A4.5,4.5,0,0,1,71.6,38.44Z"/><path class="cls-1" d="M17.41,38.44a4.51,4.51,0,1,1-4.51-4.5A4.5,4.5,0,0,1,17.41,38.44Z"/><path class="cls-1" d="M49.12,14.88a9,9,0,1,1-9-9A9,9,0,0,1,49.12,14.88Z"/><path class="cls-1" d="M58,74.14V46.59a18,18,0,1,0-36,0V74.14"/><path class="cls-1" d="M58,60.84V56.17a9.11,9.11,0,1,1,18.22,0v18H3.79v-18a9.11,9.11,0,1,1,18.22,0v8.94"/><rect class="cls-2" x="44.58" y="45.86" width="2.21" height="2.34"/><rect class="cls-2" x="40" y="45.86" width="2.37" height="2.34"/><rect class="cls-2" x="49.01" y="45.86" width="2.34" height="2.37" transform="translate(2.58 96.69) rotate(-89.36)"/></g></svg>