<svg xmlns="http://www.w3.org/2000/svg" viewBox="0 0 80 80"><defs><style>.cls-1{fill:#fff;}.cls-2{fill:#e61e2a;}</style></defs><g id="Layer_2" data-name="Layer 2"><path class="cls-1" d="M67.1,45.19a5.67,5.67,0,1,1,5.66-5.68A5.67,5.67,0,0,1,67.1,45.19Zm0-9a3.33,3.33,0,1,0,3.34,3.32A3.34,3.34,0,0,0,67.08,36.19Z"/><path class="cls-1" d="M12.91,45.3a5.68,5.68,0,1,1,5.66-5.68A5.67,5.67,0,0,1,12.91,45.3Zm0-9a3.33,3.33,0,1,0,3.34,3.32A3.32,3.32,0,0,0,12.89,36.3Z"/><path class="cls-1" d="M40.07,26.22A10.2,10.2,0,1,1,50.24,16,10.21,10.21,0,0,1,40.07,26.22ZM40,8.16A7.86,7.86,0,1,0,47.9,16,7.87,7.87,0,0,0,40,8.16Z"/><path class="cls-1" d="M59.22,75.24H56.88l-.06-27.55a16.82,16.82,0,1,0-33.63.07l.06,27.55H20.91l-.06-27.55a19.16,19.16,0,1,1,38.32-.07Z"/><path class="cls-1" d="M77.44,76.37l-74.75.15,0-19.15a10.28,10.28,0,1,1,20.56,0l0,9H20.89l0-8.94A7.94,7.94,0,1,0,5,57.37l0,16.8L75.1,74l0-16.81a7.94,7.94,0,1,0-15.88,0v4.68H56.85V57.27a10.29,10.29,0,1,1,20.57,0Z"/><rect class="cls-2" x="44.59" y="46.98" width="2.21" height="2.34" transform="translate(-0.09 0.09) rotate(-0.11)"/><rect class="cls-2" x="40.01" y="46.99" width="2.37" height="2.34" transform="translate(-0.09 0.08) rotate(-0.11)"/><rect class="cls-2" x="49.02" y="46.97" width="2.34" height="2.37" transform="translate(1.57 97.9) rotate(-89.47)"/></g></svg>