<svg xmlns="http://www.w3.org/2000/svg" viewBox="0 0 80 80"><defs><style>.cls-1{fill:#fff;}.cls-2{fill:#e61e2a;}</style></defs><g id="Layer_2" data-name="Layer 2"><polygon class="cls-1" points="73.53 60.54 56.46 43.41 47.54 52.43 29.54 34.41 3.69 60.67 2.02 59.03 29.52 31.09 47.53 49.11 56.45 40.09 75.19 58.88 73.53 60.54"/><path class="cls-1" d="M75.57,78.78l-73.85.14L1.57,4.6l73.86-.14ZM4.05,76.57l69.17-.13L73.09,6.8,3.92,6.94Z"/><path class="cls-2" d="M50.14,14.61v2h-4v4.09h-3v6h3v4.08h4v1.95h2.13a9.3,9.3,0,0,0,9.33-9,9.09,9.09,0,0,0-9.08-9Z"/></g></svg>